<svg width="603" height="598" viewBox="0 0 603 598" fill="none" xmlns="http://www.w3.org/2000/svg">
<g clip-path="url(#clip0)">
<path opacity="0.235933" d="M81.6897 424.055C74.4619 417.435 77.7896 405.411 87.3925 403.449L560.052 306.869C569.237 304.992 576.93 313.9 573.737 322.714L501.727 521.451C500.213 525.628 496.515 528.628 492.115 529.246L241.458 564.474C237.91 564.972 234.325 563.859 231.683 561.439L81.6897 424.055Z" fill="url(#paint0_linear)"/>
<g filter="url(#filter0_d)">
<path d="M226.233 551.235C221.399 544.189 225.27 534.491 233.628 532.71L492.208 477.616C500.633 475.821 508.149 483.224 506.482 491.675L500.919 519.868C499.93 524.881 495.875 528.718 490.816 529.429L243.216 564.227C238.706 564.86 234.227 562.887 231.651 559.132L226.233 551.235Z" fill="url(#paint1_linear)"/>
<path d="M227.058 550.67C222.626 544.21 226.175 535.321 233.836 533.688L492.416 478.594C500.139 476.948 507.029 483.735 505.501 491.482L499.938 519.675C499.031 524.27 495.315 527.787 490.677 528.438L243.077 563.236C238.943 563.817 234.837 562.008 232.475 558.566L227.058 550.67Z" stroke="white" stroke-opacity="0.0782099" stroke-width="2"/>
</g>
<g filter="url(#filter1_d)">
<rect x="66" y="79" width="324" height="340" rx="12" fill="url(#paint2_linear)"/>
<rect x="67" y="80" width="322" height="338" rx="11" stroke="white" stroke-opacity="0.0782099" stroke-width="2"/>
</g>
<rect x="107.458" y="114" width="122" height="156" rx="9" fill="white" fill-opacity="0.0414685" stroke="#6357F6" stroke-width="2"/>
<mask id="mask0" mask-type="alpha" maskUnits="userSpaceOnUse" x="106" y="113" width="125" height="158">
<rect x="107.458" y="114" width="122" height="156" rx="9" fill="white" stroke="white" stroke-width="2"/>
</mask>
<g mask="url(#mask0)">
<path fill-rule="evenodd" clip-rule="evenodd" d="M230.098 13.6913L232.926 16.5198L58.9778 190.468L56.1494 187.64L230.098 13.6913ZM273.902 215.887V219.887H120.068L108.068 231.887H273.902V235.887L27.9017 235.887L27.9017 231.887L102.411 231.887L114.411 219.887H97.4408L92.919 224.409L90.0905 221.581L91.784 219.887L27.9017 219.887L27.9017 215.887L95.784 215.887L264.039 47.6325L266.867 50.4609L101.441 215.887H118.411L275.353 58.9462L278.181 61.7746L124.068 215.887H273.902ZM273.902 251.887V247.887L27.9017 247.887L27.9017 251.887L273.902 251.887ZM273.902 263.887V267.887L27.9017 267.887L27.9017 263.887H273.902ZM273.902 283.887V279.887L27.9017 279.887L27.9017 283.887L273.902 283.887ZM194.706 299.083V295.083L-51.2942 295.083L-51.2942 299.083L194.706 299.083ZM194.706 315.083V311.083L-51.2942 311.083L-51.2942 315.083L194.706 315.083ZM194.706 327.083V331.083L-51.2942 331.083L-51.2942 327.083L194.706 327.083ZM194.706 347.083L194.706 343.083H-51.2942L-51.2942 347.083L194.706 347.083ZM194.706 359.083V363.083H-51.2942L-51.2942 359.083L194.706 359.083ZM241.411 25.0051L244.24 27.8335L70.2916 201.782L67.4631 198.953L241.411 25.0051ZM255.554 39.1472L252.725 36.3188L78.7768 210.267L81.6053 213.095L255.554 39.1472Z" fill="#6357F6"/>
</g>
<g filter="url(#filter2_d)">
<path d="M0 351.113C0 351.113 20.012 262.452 51.3789 260.699C81.6995 259.005 65.6995 380.348 107.375 344.219C151.958 305.569 120.982 168.626 168.676 148.848C201.859 135.087 243.666 282.016 285.129 277.141C331.385 271.702 300.291 167.799 360.113 128.219C383.336 112.854 451.219 167.25 451.219 167.25" stroke="url(#paint3_linear)" stroke-width="6"/>
</g>
<g filter="url(#filter3_d)">
<circle cx="51" cy="261" r="8" fill="white" fill-opacity="0.163638"/>
<circle cx="51" cy="261" r="8" stroke="#FF9AA3" stroke-width="1.5"/>
</g>
<g filter="url(#filter4_i)">
<circle cx="51" cy="261" r="3" fill="white"/>
</g>
<g filter="url(#filter5_d)">
<circle cx="171" cy="148" r="16" fill="white" fill-opacity="0.163638"/>
<circle cx="171" cy="148" r="16" stroke="#FF9AA3" stroke-width="3"/>
</g>
<g filter="url(#filter6_i)">
<circle cx="171" cy="148" r="6" fill="white"/>
</g>
<g filter="url(#filter7_d)">
<circle cx="374" cy="125" r="8" fill="white" fill-opacity="0.163638"/>
<circle cx="374" cy="125" r="8" stroke="#FF9AA3" stroke-width="1.5"/>
</g>
<g filter="url(#filter8_i)">
<circle cx="374" cy="125" r="3" fill="white"/>
</g>
<path d="M452.837 335.885L454.691 336.635L455.441 334.78L453.586 334.031L452.837 335.885ZM449.128 334.387L449.878 332.533L448.023 331.783L447.274 333.638L449.128 334.387ZM440.138 356.639L439.389 358.494L441.243 359.243L441.992 357.389L440.138 356.639ZM419.74 348.398L418.991 350.252L419.74 348.398ZM417.885 347.649L418.635 345.794L416.78 345.045L416.031 346.9L417.885 347.649ZM416.387 351.358L414.533 350.608L413.783 352.463L415.638 353.212L416.387 351.358ZM438.639 360.348L440.494 361.097L441.243 359.243L439.389 358.494L438.639 360.348ZM429.649 382.601L427.794 381.851L427.045 383.706L428.9 384.455L429.649 382.601ZM433.358 384.099L432.608 385.953L434.463 386.703L435.212 384.848L433.358 384.099ZM442.348 361.847L443.097 359.992L441.243 359.243L440.494 361.097L442.348 361.847ZM464.601 370.837L463.851 372.691L465.706 373.441L466.455 371.586L464.601 370.837ZM466.099 367.128L467.953 367.878L468.703 366.023L466.848 365.274L466.099 367.128ZM464.245 366.379L464.994 364.525L464.245 366.379ZM443.847 358.138L441.992 357.389L441.243 359.243L443.097 359.992L443.847 358.138ZM450.983 335.136L450.233 336.991L453.942 338.489L454.691 336.635L450.983 335.136ZM448.379 336.241L452.088 337.74L453.586 334.031L449.878 332.533L448.379 336.241ZM450.233 336.991L450.983 335.136L447.274 333.638L446.525 335.492L450.233 336.991ZM441.992 357.389L450.233 336.991L446.525 335.492L438.283 355.89L441.992 357.389ZM418.991 350.252L439.389 358.494L440.887 354.785L420.489 346.544L418.991 350.252ZM417.136 349.503L418.991 350.252L420.489 346.544L418.635 345.794L417.136 349.503ZM418.241 352.107L419.74 348.398L416.031 346.9L414.533 350.608L418.241 352.107ZM418.991 350.252L417.136 349.503L415.638 353.212L417.492 353.961L418.991 350.252ZM439.389 358.494L418.991 350.252L417.492 353.961L437.89 362.202L439.389 358.494ZM432.252 381.495L440.494 361.097L436.785 359.599L428.544 379.997L432.252 381.495ZM431.503 383.35L432.252 381.495L428.544 379.997L427.794 381.851L431.503 383.35ZM434.107 382.245L430.398 380.746L428.9 384.455L432.608 385.953L434.107 382.245ZM432.252 381.495L431.503 383.35L435.212 384.848L435.961 382.994L432.252 381.495ZM440.494 361.097L432.252 381.495L435.961 382.994L444.202 362.596L440.494 361.097ZM463.495 368.234L443.097 359.992L441.599 363.701L461.997 371.942L463.495 368.234ZM465.35 368.983L463.495 368.234L461.997 371.942L463.851 372.691L465.35 368.983ZM464.245 366.379L462.746 370.088L466.455 371.586L467.953 367.878L464.245 366.379ZM463.495 368.234L465.35 368.983L466.848 365.274L464.994 364.525L463.495 368.234ZM443.097 359.992L463.495 368.234L464.994 364.525L444.596 356.283L443.097 359.992ZM450.233 336.991L441.992 357.389L445.701 358.887L453.942 338.489L450.233 336.991Z" fill="#AD47BF"/>
<path d="M499.694 290.112C499.041 290.112 498.467 289.986 497.972 289.734C497.478 289.473 497.09 289.109 496.81 288.642C496.54 288.175 496.404 287.639 496.404 287.032V283.168C496.404 282.561 496.54 282.025 496.81 281.558C497.09 281.091 497.478 280.732 497.972 280.48C498.467 280.219 499.041 280.088 499.694 280.088C500.338 280.088 500.908 280.214 501.402 280.466C501.906 280.718 502.294 281.073 502.564 281.53C502.835 281.978 502.97 282.487 502.97 283.056V283.238C502.97 283.331 502.924 283.378 502.83 283.378H502.116C502.023 283.378 501.976 283.331 501.976 283.238V283.07C501.976 282.445 501.766 281.936 501.346 281.544C500.936 281.152 500.385 280.956 499.694 280.956C499.004 280.956 498.448 281.157 498.028 281.558C497.608 281.959 497.398 282.487 497.398 283.14V287.06C497.398 287.713 497.613 288.241 498.042 288.642C498.472 289.043 499.036 289.244 499.736 289.244C500.418 289.244 500.959 289.057 501.36 288.684C501.771 288.311 501.976 287.811 501.976 287.186V285.912C501.976 285.875 501.958 285.856 501.92 285.856H499.862C499.769 285.856 499.722 285.809 499.722 285.716V285.128C499.722 285.035 499.769 284.988 499.862 284.988H502.83C502.924 284.988 502.97 285.035 502.97 285.128V286.934C502.97 287.933 502.672 288.712 502.074 289.272C501.486 289.832 500.693 290.112 499.694 290.112ZM507.457 282.804C508.297 282.804 508.945 283.019 509.403 283.448C509.86 283.877 510.089 284.447 510.089 285.156V289.86C510.089 289.953 510.042 290 509.949 290H509.235C509.141 290 509.095 289.953 509.095 289.86V289.286C509.095 289.267 509.085 289.253 509.067 289.244C509.057 289.235 509.043 289.239 509.025 289.258C508.791 289.538 508.488 289.753 508.115 289.902C507.741 290.042 507.326 290.112 506.869 290.112C506.206 290.112 505.651 289.944 505.203 289.608C504.755 289.272 504.531 288.759 504.531 288.068C504.531 287.368 504.783 286.817 505.287 286.416C505.8 286.005 506.509 285.8 507.415 285.8H509.039C509.076 285.8 509.095 285.781 509.095 285.744V285.212C509.095 284.736 508.959 284.363 508.689 284.092C508.427 283.812 508.017 283.672 507.457 283.672C507.009 283.672 506.645 283.761 506.365 283.938C506.085 284.106 505.912 284.344 505.847 284.652C505.819 284.745 505.763 284.787 505.679 284.778L504.923 284.68C504.82 284.661 504.778 284.624 504.797 284.568C504.871 284.045 505.151 283.621 505.637 283.294C506.122 282.967 506.729 282.804 507.457 282.804ZM507.065 289.258C507.615 289.258 508.091 289.123 508.493 288.852C508.894 288.572 509.095 288.199 509.095 287.732V286.64C509.095 286.603 509.076 286.584 509.039 286.584H507.569C506.953 286.584 506.458 286.71 506.085 286.962C505.711 287.214 505.525 287.564 505.525 288.012C505.525 288.423 505.665 288.735 505.945 288.95C506.234 289.155 506.607 289.258 507.065 289.258ZM519.325 282.818C520.025 282.818 520.576 283.028 520.977 283.448C521.388 283.868 521.593 284.442 521.593 285.17V289.86C521.593 289.953 521.546 290 521.453 290H520.753C520.66 290 520.613 289.953 520.613 289.86V285.366C520.613 284.853 520.464 284.447 520.165 284.148C519.876 283.84 519.493 283.686 519.017 283.686C518.522 283.686 518.121 283.835 517.813 284.134C517.514 284.433 517.365 284.834 517.365 285.338V289.86C517.365 289.953 517.318 290 517.225 290H516.511C516.418 290 516.371 289.953 516.371 289.86V285.366C516.371 284.853 516.226 284.447 515.937 284.148C515.648 283.84 515.26 283.686 514.775 283.686C514.28 283.686 513.884 283.835 513.585 284.134C513.296 284.433 513.151 284.834 513.151 285.338V289.86C513.151 289.953 513.104 290 513.011 290H512.297C512.204 290 512.157 289.953 512.157 289.86V283.056C512.157 282.963 512.204 282.916 512.297 282.916H513.011C513.104 282.916 513.151 282.963 513.151 283.056V283.616C513.151 283.635 513.156 283.649 513.165 283.658C513.184 283.658 513.202 283.649 513.221 283.63C513.426 283.359 513.688 283.159 514.005 283.028C514.332 282.888 514.691 282.818 515.083 282.818C515.568 282.818 515.984 282.916 516.329 283.112C516.674 283.308 516.936 283.593 517.113 283.966C517.132 284.013 517.155 284.013 517.183 283.966C517.388 283.583 517.678 283.299 518.051 283.112C518.424 282.916 518.849 282.818 519.325 282.818ZM529.073 285.268C529.111 285.529 529.129 285.856 529.129 286.248V286.696C529.129 286.789 529.083 286.836 528.989 286.836H524.467C524.43 286.836 524.411 286.855 524.411 286.892C524.43 287.405 524.458 287.737 524.495 287.886C524.598 288.306 524.817 288.637 525.153 288.88C525.489 289.123 525.919 289.244 526.441 289.244C526.833 289.244 527.179 289.155 527.477 288.978C527.776 288.801 528.009 288.549 528.177 288.222C528.233 288.138 528.299 288.119 528.373 288.166L528.919 288.488C528.994 288.535 529.013 288.6 528.975 288.684C528.742 289.132 528.392 289.487 527.925 289.748C527.459 290 526.922 290.126 526.315 290.126C525.653 290.117 525.097 289.958 524.649 289.65C524.201 289.342 523.879 288.913 523.683 288.362C523.515 287.914 523.431 287.27 523.431 286.43C523.431 286.038 523.436 285.721 523.445 285.478C523.464 285.226 523.501 285.002 523.557 284.806C523.716 284.199 524.033 283.714 524.509 283.35C524.995 282.986 525.578 282.804 526.259 282.804C527.109 282.804 527.762 283.019 528.219 283.448C528.677 283.877 528.961 284.484 529.073 285.268ZM526.259 283.672C525.802 283.672 525.419 283.793 525.111 284.036C524.813 284.269 524.617 284.587 524.523 284.988C524.467 285.184 524.43 285.501 524.411 285.94C524.411 285.977 524.43 285.996 524.467 285.996H528.093C528.131 285.996 528.149 285.977 528.149 285.94C528.131 285.52 528.103 285.221 528.065 285.044C527.963 284.624 527.753 284.293 527.435 284.05C527.127 283.798 526.735 283.672 526.259 283.672ZM533.307 290.07C532.785 290.07 532.318 289.986 531.907 289.818C531.506 289.65 531.193 289.426 530.969 289.146C530.755 288.866 530.647 288.553 530.647 288.208V288.04C530.647 287.947 530.694 287.9 530.787 287.9H531.459C531.553 287.9 531.599 287.947 531.599 288.04V288.152C531.599 288.46 531.758 288.731 532.075 288.964C532.402 289.188 532.808 289.3 533.293 289.3C533.779 289.3 534.171 289.193 534.469 288.978C534.768 288.754 534.917 288.474 534.917 288.138C534.917 287.905 534.838 287.713 534.679 287.564C534.53 287.415 534.348 287.298 534.133 287.214C533.928 287.13 533.606 287.023 533.167 286.892C532.645 286.743 532.215 286.593 531.879 286.444C531.543 286.295 531.259 286.089 531.025 285.828C530.801 285.557 530.689 285.217 530.689 284.806C530.689 284.209 530.923 283.733 531.389 283.378C531.856 283.023 532.472 282.846 533.237 282.846C533.751 282.846 534.203 282.93 534.595 283.098C534.997 283.266 535.305 283.499 535.519 283.798C535.734 284.087 535.841 284.414 535.841 284.778V284.82C535.841 284.913 535.795 284.96 535.701 284.96H535.043C534.95 284.96 534.903 284.913 534.903 284.82V284.778C534.903 284.461 534.749 284.195 534.441 283.98C534.143 283.765 533.737 283.658 533.223 283.658C532.747 283.658 532.365 283.756 532.075 283.952C531.786 284.139 531.641 284.4 531.641 284.736C531.641 285.053 531.781 285.296 532.061 285.464C532.341 285.632 532.775 285.8 533.363 285.968C533.905 286.127 534.343 286.276 534.679 286.416C535.015 286.556 535.305 286.761 535.547 287.032C535.79 287.293 535.911 287.639 535.911 288.068C535.911 288.675 535.673 289.16 535.197 289.524C534.721 289.888 534.091 290.07 533.307 290.07Z" fill="white" fill-opacity="0.495556"/>
<g filter="url(#filter9_b)">
<rect x="156.077" y="46.1287" width="12" height="12" transform="rotate(-20 156.077 46.1287)" stroke="#AD47BF" stroke-width="3" stroke-linecap="square" stroke-linejoin="round"/>
</g>
<path d="M514.336 137.29L515.661 136.586L514.957 135.261L513.632 135.966L514.336 137.29ZM515.275 139.056L513.951 139.76L515.275 139.056ZM510.805 139.168L510.1 137.844L508.776 138.548L509.48 139.872L510.805 139.168ZM511.744 140.934L513.068 140.23L511.744 140.934ZM514.816 146.713L515.55 148.021L516.829 147.303L516.141 146.008L514.816 146.713ZM509.107 149.917L508.373 148.609L509.107 149.917ZM507.363 150.895L506.628 149.587L505.32 150.321L506.054 151.629L507.363 150.895ZM509.32 154.384L508.012 155.118L508.746 156.426L510.054 155.692L509.32 154.384ZM511.064 153.405L510.33 152.097L510.33 152.097L511.064 153.405ZM516.695 150.245L518.019 149.541L517.299 148.186L515.96 148.937L516.695 150.245ZM519.725 155.944L518.4 156.648L519.725 155.944ZM520.664 157.71L519.339 158.414L520.043 159.739L521.368 159.034L520.664 157.71ZM524.195 155.832L524.9 157.156L526.224 156.452L525.52 155.128L524.195 155.832ZM523.256 154.066L521.932 154.77L523.256 154.066ZM520.184 148.287L519.45 146.979L518.171 147.697L518.859 148.992L520.184 148.287ZM525.893 145.083L526.627 146.391L525.893 145.083ZM527.637 144.105L528.371 145.413L529.68 144.679L528.945 143.371L527.637 144.105ZM525.68 140.616L526.988 139.882L526.254 138.574L524.946 139.308L525.68 140.616ZM523.936 141.595L524.67 142.903L523.936 141.595ZM518.305 144.755L516.981 145.459L517.701 146.814L519.039 146.063L518.305 144.755ZM513.012 137.994L513.951 139.76L516.6 138.352L515.661 136.586L513.012 137.994ZM511.509 140.492L515.041 138.615L513.632 135.966L510.1 137.844L511.509 140.492ZM513.068 140.23L512.129 138.464L509.48 139.872L510.419 141.638L513.068 140.23ZM516.141 146.008L513.068 140.23L510.419 141.638L513.492 147.417L516.141 146.008ZM509.841 151.225L515.55 148.021L514.082 145.405L508.373 148.609L509.841 151.225ZM508.097 152.204L509.841 151.225L508.373 148.609L506.628 149.587L508.097 152.204ZM510.628 153.65L508.671 150.161L506.054 151.629L508.012 155.118L510.628 153.65ZM510.33 152.097L508.586 153.076L510.054 155.692L511.798 154.713L510.33 152.097ZM515.96 148.937L510.33 152.097L511.798 154.713L517.429 151.553L515.96 148.937ZM521.049 155.24L518.019 149.541L515.37 150.95L518.4 156.648L521.049 155.24ZM521.988 157.006L521.049 155.24L518.4 156.648L519.339 158.414L521.988 157.006ZM523.491 154.508L519.959 156.385L521.368 159.034L524.9 157.156L523.491 154.508ZM521.932 154.77L522.871 156.536L525.52 155.128L524.581 153.362L521.932 154.77ZM518.859 148.992L521.932 154.77L524.581 153.362L521.508 147.583L518.859 148.992ZM525.159 143.775L519.45 146.979L520.918 149.595L526.627 146.391L525.159 143.775ZM526.903 142.797L525.159 143.775L526.627 146.391L528.371 145.413L526.903 142.797ZM524.372 141.35L526.329 144.839L528.945 143.371L526.988 139.882L524.372 141.35ZM524.67 142.903L526.414 141.924L524.946 139.308L523.202 140.287L524.67 142.903ZM519.039 146.063L524.67 142.903L523.202 140.287L517.571 143.447L519.039 146.063ZM513.951 139.76L516.981 145.459L519.63 144.05L516.6 138.352L513.951 139.76Z" fill="#AD47BF"/>
</g>
<defs>
<filter id="filter0_d" x="171.978" y="451.796" width="388.073" height="186.696" filterUnits="userSpaceOnUse" color-interpolation-filters="sRGB">
<feFlood flood-opacity="0" result="BackgroundImageFix"/>
<feColorMatrix in="SourceAlpha" type="matrix" values="0 0 0 0 0 0 0 0 0 0 0 0 0 0 0 0 0 0 127 0"/>
<feOffset dy="24"/>
<feGaussianBlur stdDeviation="24"/>
<feColorMatrix type="matrix" values="0 0 0 0 0 0 0 0 0 0.0037911 0 0 0 0 0.170599 0 0 0 0.157184 0"/>
<feBlend mode="normal" in2="BackgroundImageFix" result="effect1_dropShadow"/>
<feBlend mode="normal" in="SourceGraphic" in2="effect1_dropShadow" result="shape"/>
</filter>
<filter id="filter1_d" x="18" y="55" width="420" height="436" filterUnits="userSpaceOnUse" color-interpolation-filters="sRGB">
<feFlood flood-opacity="0" result="BackgroundImageFix"/>
<feColorMatrix in="SourceAlpha" type="matrix" values="0 0 0 0 0 0 0 0 0 0 0 0 0 0 0 0 0 0 127 0"/>
<feOffset dy="24"/>
<feGaussianBlur stdDeviation="24"/>
<feColorMatrix type="matrix" values="0 0 0 0 0 0 0 0 0 0.0037911 0 0 0 0 0.170599 0 0 0 0.157184 0"/>
<feBlend mode="normal" in2="BackgroundImageFix" result="effect1_dropShadow"/>
<feBlend mode="normal" in="SourceGraphic" in2="effect1_dropShadow" result="shape"/>
</filter>
<filter id="filter2_d" x="-10.9259" y="122.484" width="488.019" height="279.457" filterUnits="userSpaceOnUse" color-interpolation-filters="sRGB">
<feFlood flood-opacity="0" result="BackgroundImageFix"/>
<feColorMatrix in="SourceAlpha" type="matrix" values="0 0 0 0 0 0 0 0 0 0 0 0 0 0 0 0 0 0 127 0"/>
<feOffset dx="8" dy="32"/>
<feGaussianBlur stdDeviation="8"/>
<feColorMatrix type="matrix" values="0 0 0 0 0 0 0 0 0 0 0 0 0 0 0 0 0 0 0.32 0"/>
<feBlend mode="normal" in2="BackgroundImageFix" result="effect1_dropShadow"/>
<feBlend mode="normal" in="SourceGraphic" in2="effect1_dropShadow" result="shape"/>
</filter>
<filter id="filter3_d" x="38.25" y="250.25" width="25.5" height="25.5" filterUnits="userSpaceOnUse" color-interpolation-filters="sRGB">
<feFlood flood-opacity="0" result="BackgroundImageFix"/>
<feColorMatrix in="SourceAlpha" type="matrix" values="0 0 0 0 0 0 0 0 0 0 0 0 0 0 0 0 0 0 127 0"/>
<feOffset dy="2"/>
<feGaussianBlur stdDeviation="2"/>
<feColorMatrix type="matrix" values="0 0 0 0 0 0 0 0 0 0 0 0 0 0 0 0 0 0 0.157495 0"/>
<feBlend mode="normal" in2="BackgroundImageFix" result="effect1_dropShadow"/>
<feBlend mode="normal" in="SourceGraphic" in2="effect1_dropShadow" result="shape"/>
</filter>
<filter id="filter4_i" x="48" y="257" width="6" height="7" filterUnits="userSpaceOnUse" color-interpolation-filters="sRGB">
<feFlood flood-opacity="0" result="BackgroundImageFix"/>
<feBlend mode="normal" in="SourceGraphic" in2="BackgroundImageFix" result="shape"/>
<feColorMatrix in="SourceAlpha" type="matrix" values="0 0 0 0 0 0 0 0 0 0 0 0 0 0 0 0 0 0 127 0" result="hardAlpha"/>
<feOffset dy="-1"/>
<feGaussianBlur stdDeviation="1.5"/>
<feComposite in2="hardAlpha" operator="arithmetic" k2="-1" k3="1"/>
<feColorMatrix type="matrix" values="0 0 0 0 0.901961 0 0 0 0 0.376471 0 0 0 0 0.423529 0 0 0 1 0"/>
<feBlend mode="normal" in2="shape" result="effect1_innerShadow"/>
</filter>
<filter id="filter5_d" x="145.5" y="126.5" width="51" height="51" filterUnits="userSpaceOnUse" color-interpolation-filters="sRGB">
<feFlood flood-opacity="0" result="BackgroundImageFix"/>
<feColorMatrix in="SourceAlpha" type="matrix" values="0 0 0 0 0 0 0 0 0 0 0 0 0 0 0 0 0 0 127 0"/>
<feOffset dy="4"/>
<feGaussianBlur stdDeviation="4"/>
<feColorMatrix type="matrix" values="0 0 0 0 0 0 0 0 0 0 0 0 0 0 0 0 0 0 0.157495 0"/>
<feBlend mode="normal" in2="BackgroundImageFix" result="effect1_dropShadow"/>
<feBlend mode="normal" in="SourceGraphic" in2="effect1_dropShadow" result="shape"/>
</filter>
<filter id="filter6_i" x="165" y="140" width="12" height="14" filterUnits="userSpaceOnUse" color-interpolation-filters="sRGB">
<feFlood flood-opacity="0" result="BackgroundImageFix"/>
<feBlend mode="normal" in="SourceGraphic" in2="BackgroundImageFix" result="shape"/>
<feColorMatrix in="SourceAlpha" type="matrix" values="0 0 0 0 0 0 0 0 0 0 0 0 0 0 0 0 0 0 127 0" result="hardAlpha"/>
<feOffset dy="-2"/>
<feGaussianBlur stdDeviation="3"/>
<feComposite in2="hardAlpha" operator="arithmetic" k2="-1" k3="1"/>
<feColorMatrix type="matrix" values="0 0 0 0 0.901961 0 0 0 0 0.376471 0 0 0 0 0.423529 0 0 0 1 0"/>
<feBlend mode="normal" in2="shape" result="effect1_innerShadow"/>
</filter>
<filter id="filter7_d" x="361.25" y="114.25" width="25.5" height="25.5" filterUnits="userSpaceOnUse" color-interpolation-filters="sRGB">
<feFlood flood-opacity="0" result="BackgroundImageFix"/>
<feColorMatrix in="SourceAlpha" type="matrix" values="0 0 0 0 0 0 0 0 0 0 0 0 0 0 0 0 0 0 127 0"/>
<feOffset dy="2"/>
<feGaussianBlur stdDeviation="2"/>
<feColorMatrix type="matrix" values="0 0 0 0 0 0 0 0 0 0 0 0 0 0 0 0 0 0 0.157495 0"/>
<feBlend mode="normal" in2="BackgroundImageFix" result="effect1_dropShadow"/>
<feBlend mode="normal" in="SourceGraphic" in2="effect1_dropShadow" result="shape"/>
</filter>
<filter id="filter8_i" x="371" y="121" width="6" height="7" filterUnits="userSpaceOnUse" color-interpolation-filters="sRGB">
<feFlood flood-opacity="0" result="BackgroundImageFix"/>
<feBlend mode="normal" in="SourceGraphic" in2="BackgroundImageFix" result="shape"/>
<feColorMatrix in="SourceAlpha" type="matrix" values="0 0 0 0 0 0 0 0 0 0 0 0 0 0 0 0 0 0 127 0" result="hardAlpha"/>
<feOffset dy="-1"/>
<feGaussianBlur stdDeviation="1.5"/>
<feComposite in2="hardAlpha" operator="arithmetic" k2="-1" k3="1"/>
<feColorMatrix type="matrix" values="0 0 0 0 0.901961 0 0 0 0 0.376471 0 0 0 0 0.423529 0 0 0 1 0"/>
<feBlend mode="normal" in2="shape" result="effect1_innerShadow"/>
</filter>
<filter id="filter9_b" x="146" y="31.9471" width="35.5354" height="35.5354" filterUnits="userSpaceOnUse" color-interpolation-filters="sRGB">
<feFlood flood-opacity="0" result="BackgroundImageFix"/>
<feGaussianBlur in="BackgroundImage" stdDeviation="4.07742"/>
<feComposite in2="SourceAlpha" operator="in" result="effect1_backgroundBlur"/>
<feBlend mode="normal" in="SourceGraphic" in2="effect1_backgroundBlur" result="shape"/>
</filter>
<linearGradient id="paint0_linear" x1="72.0857" y1="375.424" x2="101.421" y2="584.155" gradientUnits="userSpaceOnUse">
<stop stop-color="#222355"/>
<stop offset="1" stop-color="#5B5DCD"/>
</linearGradient>
<linearGradient id="paint1_linear" x1="217.709" y1="515.744" x2="224.885" y2="566.803" gradientUnits="userSpaceOnUse">
<stop stop-color="#4D4F95"/>
<stop offset="1" stop-color="#2B2D66"/>
</linearGradient>
<linearGradient id="paint2_linear" x1="66" y1="79" x2="66" y2="419" gradientUnits="userSpaceOnUse">
<stop stop-color="#4D4F95"/>
<stop offset="1" stop-color="#2B2D66"/>
</linearGradient>
<linearGradient id="paint3_linear" x1="267.09" y1="57.3941" x2="65.8044" y2="374.047" gradientUnits="userSpaceOnUse">
<stop stop-color="#2D2E6B"/>
<stop offset="0.147286" stop-color="#E6606C"/>
<stop offset="0.836705" stop-color="#E6606C"/>
<stop offset="1" stop-color="#242558"/>
</linearGradient>
<clipPath id="clip0">
<rect width="603" height="598" fill="white"/>
</clipPath>
</defs>
</svg>
